<mxfile host="app.diagrams.net" modified="2023-11-21T07:36:18.109Z" agent="Mozilla/5.0 (Windows NT 10.0; Win64; x64) AppleWebKit/537.36 (KHTML, like Gecko) Chrome/119.0.0.0 Safari/537.36" etag="o9sNefEHluDZD_JVX6mh" version="22.1.3" type="github">
  <diagram name="페이지-1" id="ONSRwsZsQMqiGqJdxQxZ">
    <mxGraphModel dx="2261" dy="1919" grid="1" gridSize="10" guides="1" tooltips="1" connect="1" arrows="1" fold="1" page="1" pageScale="1" pageWidth="827" pageHeight="1169" math="0" shadow="0">
      <root>
        <mxCell id="0" />
        <mxCell id="1" parent="0" />
        <mxCell id="ylA6RAmN_qZPsvHQUGK8-3" value="프로필" style="rounded=0;whiteSpace=wrap;html=1;" parent="1" vertex="1">
          <mxGeometry x="-740" y="370" width="120" height="60" as="geometry" />
        </mxCell>
        <mxCell id="ylA6RAmN_qZPsvHQUGK8-14" style="edgeStyle=orthogonalEdgeStyle;rounded=0;orthogonalLoop=1;jettySize=auto;html=1;" parent="1" source="ylA6RAmN_qZPsvHQUGK8-4" target="ylA6RAmN_qZPsvHQUGK8-11" edge="1">
          <mxGeometry relative="1" as="geometry" />
        </mxCell>
        <mxCell id="ylA6RAmN_qZPsvHQUGK8-4" value="게시글" style="rounded=0;whiteSpace=wrap;html=1;" parent="1" vertex="1">
          <mxGeometry x="-380" y="370" width="120" height="60" as="geometry" />
        </mxCell>
        <mxCell id="ylA6RAmN_qZPsvHQUGK8-5" value="지역" style="rounded=0;whiteSpace=wrap;html=1;" parent="1" vertex="1">
          <mxGeometry x="-560" y="525" width="120" height="60" as="geometry" />
        </mxCell>
        <mxCell id="ylA6RAmN_qZPsvHQUGK8-15" style="edgeStyle=orthogonalEdgeStyle;rounded=0;orthogonalLoop=1;jettySize=auto;html=1;entryX=0;entryY=0.5;entryDx=0;entryDy=0;" parent="1" source="ylA6RAmN_qZPsvHQUGK8-11" target="ylA6RAmN_qZPsvHQUGK8-12" edge="1">
          <mxGeometry relative="1" as="geometry" />
        </mxCell>
        <mxCell id="ylA6RAmN_qZPsvHQUGK8-16" style="edgeStyle=orthogonalEdgeStyle;rounded=0;orthogonalLoop=1;jettySize=auto;html=1;" parent="1" source="ylA6RAmN_qZPsvHQUGK8-11" target="ylA6RAmN_qZPsvHQUGK8-13" edge="1">
          <mxGeometry relative="1" as="geometry" />
        </mxCell>
        <mxCell id="ylA6RAmN_qZPsvHQUGK8-17" style="edgeStyle=orthogonalEdgeStyle;rounded=0;orthogonalLoop=1;jettySize=auto;html=1;" parent="1" source="ylA6RAmN_qZPsvHQUGK8-11" edge="1">
          <mxGeometry relative="1" as="geometry">
            <mxPoint x="-100" y="270" as="targetPoint" />
          </mxGeometry>
        </mxCell>
        <mxCell id="ylA6RAmN_qZPsvHQUGK8-20" style="edgeStyle=orthogonalEdgeStyle;rounded=0;orthogonalLoop=1;jettySize=auto;html=1;" parent="1" source="ylA6RAmN_qZPsvHQUGK8-11" target="ylA6RAmN_qZPsvHQUGK8-19" edge="1">
          <mxGeometry relative="1" as="geometry" />
        </mxCell>
        <mxCell id="ylA6RAmN_qZPsvHQUGK8-22" style="edgeStyle=orthogonalEdgeStyle;rounded=0;orthogonalLoop=1;jettySize=auto;html=1;" parent="1" source="ylA6RAmN_qZPsvHQUGK8-11" target="ylA6RAmN_qZPsvHQUGK8-21" edge="1">
          <mxGeometry relative="1" as="geometry">
            <Array as="points">
              <mxPoint x="-100" y="470" />
              <mxPoint x="-260" y="470" />
            </Array>
          </mxGeometry>
        </mxCell>
        <mxCell id="ylA6RAmN_qZPsvHQUGK8-11" value="게시글 컨틀롤러" style="rounded=0;whiteSpace=wrap;html=1;" parent="1" vertex="1">
          <mxGeometry x="-160" y="370" width="120" height="60" as="geometry" />
        </mxCell>
        <mxCell id="ylA6RAmN_qZPsvHQUGK8-12" value="게시글 작성 서비스" style="rounded=0;whiteSpace=wrap;html=1;" parent="1" vertex="1">
          <mxGeometry x="30" y="270" width="120" height="60" as="geometry" />
        </mxCell>
        <mxCell id="ylA6RAmN_qZPsvHQUGK8-13" value="게시글 수정 서비스" style="rounded=0;whiteSpace=wrap;html=1;" parent="1" vertex="1">
          <mxGeometry x="30" y="370" width="120" height="60" as="geometry" />
        </mxCell>
        <mxCell id="ylA6RAmN_qZPsvHQUGK8-18" value="게시글 입력값 검증" style="rounded=0;whiteSpace=wrap;html=1;" parent="1" vertex="1">
          <mxGeometry x="-160" y="210" width="120" height="60" as="geometry" />
        </mxCell>
        <mxCell id="ylA6RAmN_qZPsvHQUGK8-19" value="취미 카테고리 검증단" style="rounded=0;whiteSpace=wrap;html=1;" parent="1" vertex="1">
          <mxGeometry x="-160" y="530" width="120" height="60" as="geometry" />
        </mxCell>
        <mxCell id="ylA6RAmN_qZPsvHQUGK8-21" value="토큰 검증단" style="rounded=0;whiteSpace=wrap;html=1;" parent="1" vertex="1">
          <mxGeometry x="-320" y="530" width="120" height="60" as="geometry" />
        </mxCell>
        <mxCell id="hkT8D0nBrZQYGym--TO3-1" style="edgeStyle=orthogonalEdgeStyle;rounded=0;orthogonalLoop=1;jettySize=auto;html=1;exitX=1;exitY=0.5;exitDx=0;exitDy=0;entryX=0;entryY=0.5;entryDx=0;entryDy=0;" edge="1" parent="1" source="hkT8D0nBrZQYGym--TO3-3" target="hkT8D0nBrZQYGym--TO3-7">
          <mxGeometry relative="1" as="geometry" />
        </mxCell>
        <mxCell id="hkT8D0nBrZQYGym--TO3-2" style="edgeStyle=orthogonalEdgeStyle;rounded=0;orthogonalLoop=1;jettySize=auto;html=1;exitX=1;exitY=0.5;exitDx=0;exitDy=0;entryX=0;entryY=0.5;entryDx=0;entryDy=0;" edge="1" parent="1" source="hkT8D0nBrZQYGym--TO3-3" target="hkT8D0nBrZQYGym--TO3-10">
          <mxGeometry relative="1" as="geometry" />
        </mxCell>
        <mxCell id="hkT8D0nBrZQYGym--TO3-3" value="사용자" style="rounded=0;whiteSpace=wrap;html=1;" vertex="1" parent="1">
          <mxGeometry x="-270" y="-105" width="120" height="60" as="geometry" />
        </mxCell>
        <mxCell id="hkT8D0nBrZQYGym--TO3-4" value="" style="edgeStyle=orthogonalEdgeStyle;rounded=0;orthogonalLoop=1;jettySize=auto;html=1;" edge="1" parent="1" source="hkT8D0nBrZQYGym--TO3-5" target="hkT8D0nBrZQYGym--TO3-8">
          <mxGeometry relative="1" as="geometry" />
        </mxCell>
        <mxCell id="hkT8D0nBrZQYGym--TO3-5" value="취미" style="rounded=0;whiteSpace=wrap;html=1;" vertex="1" parent="1">
          <mxGeometry x="-220" y="-360" width="120" height="60" as="geometry" />
        </mxCell>
        <mxCell id="hkT8D0nBrZQYGym--TO3-6" value="" style="edgeStyle=orthogonalEdgeStyle;rounded=0;orthogonalLoop=1;jettySize=auto;html=1;" edge="1" parent="1" source="hkT8D0nBrZQYGym--TO3-7" target="hkT8D0nBrZQYGym--TO3-11">
          <mxGeometry relative="1" as="geometry" />
        </mxCell>
        <mxCell id="hkT8D0nBrZQYGym--TO3-7" value="회원가입" style="rounded=0;whiteSpace=wrap;html=1;" vertex="1" parent="1">
          <mxGeometry x="-100" y="-150" width="120" height="60" as="geometry" />
        </mxCell>
        <mxCell id="hkT8D0nBrZQYGym--TO3-8" value="취미카테고리 생성" style="rounded=0;whiteSpace=wrap;html=1;" vertex="1" parent="1">
          <mxGeometry x="-30" y="-360" width="120" height="60" as="geometry" />
        </mxCell>
        <mxCell id="hkT8D0nBrZQYGym--TO3-9" value="" style="edgeStyle=orthogonalEdgeStyle;rounded=0;orthogonalLoop=1;jettySize=auto;html=1;" edge="1" parent="1" source="hkT8D0nBrZQYGym--TO3-10" target="hkT8D0nBrZQYGym--TO3-12">
          <mxGeometry relative="1" as="geometry" />
        </mxCell>
        <mxCell id="hkT8D0nBrZQYGym--TO3-10" value="로그인" style="rounded=0;whiteSpace=wrap;html=1;" vertex="1" parent="1">
          <mxGeometry x="-100" y="-60" width="120" height="60" as="geometry" />
        </mxCell>
        <mxCell id="hkT8D0nBrZQYGym--TO3-11" value="토큰 생성" style="rounded=0;whiteSpace=wrap;html=1;" vertex="1" parent="1">
          <mxGeometry x="100" y="-150" width="120" height="60" as="geometry" />
        </mxCell>
        <mxCell id="hkT8D0nBrZQYGym--TO3-12" value="토큰&amp;nbsp;" style="rounded=0;whiteSpace=wrap;html=1;" vertex="1" parent="1">
          <mxGeometry x="100" y="-60" width="120" height="60" as="geometry" />
        </mxCell>
      </root>
    </mxGraphModel>
  </diagram>
</mxfile>
